PathFileType	4	(X/Y/Z)	path1_02_0-549.trc
DataRate	CameraRate	NumFrames	NumMarkers	Units	OrigDataRate	OrigDataStartFrame	OrigNumFrames
30	30	8	22	m	30	343	549
Frame#	Time	Hip			RHip			RKnee			RAnkle			RBigToe			RSmallToe			RHeel			LHip			LKnee			LAnkle			LBigToe			LSmallToe			LHeel			Neck			Head			Nose			RShoulder			RElbow			RWrist			LShoulder			LElbow			LWrist		
		X1	Y1	Z1	X2	Y2	Z2	X3	Y3	Z3	X4	Y4	Z4	X5	Y5	Z5	X6	Y6	Z6	X7	Y7	Z7	X8	Y8	Z8	X9	Y9	Z9	X10	Y10	Z10	X11	Y11	Z11	X12	Y12	Z12	X13	Y13	Z13	X14	Y14	Z14	X15	Y15	Z15	X16	Y16	Z16	X17	Y17	Z17	X18	Y18	Z18	X19	Y19	Z19	X20	Y20	Z20	X21	Y21	Z21	X22	Y22	Z22
344	11.466666666666669	2.581881208989372	0.8350451363349356	0.19159410223367815	2.588670335605675	0.814368756144924	0.11671988086177032	2.5929233011036774	0.4523121572185352	0.13600312588320437	2.662931938506239	0.10133077857188924	0.153192596686178	2.4763588350057306	0.029013594927271878	0.13467016300035906	2.50544411962513	0.027273183178645938	0.0771121731190251	2.6971600571657084	0.03507631017303168	0.15686391812705505	2.576124241635754	0.8147940417471312	0.27402349132761605	2.553714347857419	0.45788738907824966	0.28613892418862513	2.6518589203081713	0.11404029583359293	0.29760511672577694	2.483922609560811	0.022437779614153913	0.3097832666505109	2.514599287451876	0.030292039915391755	0.3479128996458938	2.702354056484781	0.03726350401916541	0.27029662500022467	2.5392287803013485	1.4591127158433892	0.20575134019097682	2.4634655743321074	1.6962556756896088	0.19657555616403624	2.397036265705236	1.5842396271371757	0.20796344578729056	2.578146323429052	1.355747996868848	0.03352564434093898	2.5424131937686423	1.0596813508775744	-0.024430946598349882	2.4665030151934375	0.8344561317185222	-0.006142629752079116	2.5695244600968037	1.3543196537151259	0.37688459671496366	2.5454482324035492	1.0649585526818017	0.39540114764348594	2.473564403285838	0.8391387529303916	0.3840395381201532
345	11.5	2.577854499549189	0.8355100469484678	0.1888664691291738	2.5839471308863358	0.8142428007761437	0.11313838625298223	2.585800873549357	0.4510330779113193	0.12735962148053068	2.6610062011619906	0.10278153999494909	0.14970881908500305	2.4826660101041513	0.028113078247192353	0.13403380331489537	2.5071707027711128	0.026118836090963354	0.07792255837330363	2.697475955938871	0.03516770938306975	0.1565251845894599	2.5695776577088294	0.8158024267258068	0.27149097662691013	2.5266712931626922	0.4654401986920854	0.28127969757064586	2.642665725267312	0.11952087132870406	0.29507818993971746	2.478739673224816	0.023649568344890695	0.3089590147085986	2.511978626818432	0.028844525323755015	0.34850466393209656	2.6968765800163794	0.04110601951081441	0.26845028001083904	2.533849962107756	1.4572198922662598	0.20268936079630745	2.45503899857515	1.6965137914304707	0.19225344504302266	2.3900849474030963	1.5820593392641267	0.20167972617122748	2.5719321214569604	1.3539101458170728	0.03053264801739064	2.5324679736379903	1.0577236067168734	-0.02604925288873191	2.454280296662964	0.8334992325975508	-0.01079729170709421	2.567171848152309	1.3552435224504042	0.3798030316390897	2.543004088825695	1.064247774779664	0.3912134658869008	2.469354615612399	0.8392565550137965	0.3821832043081741
346	11.533333333333331	2.5730879914890528	0.8361456150273551	0.18623601321664116	2.5785020351933943	0.813786187773397	0.10931628252062997	2.578408451842562	0.4499913953895891	0.11872068406885183	2.6580127518892276	0.10420097012651124	0.1461297260774921	2.4893621984932883	0.026225038917819483	0.1332004934200719	2.50999221921933	0.024524720742675456	0.07897162853099018	2.6973967721296104	0.03506638070792489	0.15564188710580276	2.5613952846899624	0.8166034642023197	0.2687109178405235	2.4971805788493646	0.4745102558960964	0.2765927655051562	2.6280000539141257	0.12528113101134733	0.2915198149728999	2.468092630544297	0.024991399268732187	0.3072989820815458	2.5025887847663704	0.02900674904372657	0.3491748535018442	2.684794097836262	0.04641886723337324	0.2664228992365032	2.5268873432758094	1.4553292536404518	0.19978768832685284	2.448140651556045	1.6975578728737857	0.1892688292103728	2.3812640118206647	1.5801272005889042	0.1948629239106944	2.563965554373348	1.3519710642863865	0.02737137997023672	2.5203834512748653	1.0557332083774318	-0.027657716754119346	2.4383444335817024	0.8330294270442495	-0.015916045250516	2.5642128961533817	1.355821330836465	0.38119795475930573	2.5406653507198573	1.0635965096360065	0.3869482036714517	2.464806087626674	0.8394222549020366	0.3811800078048923
347	11.566666666666666	2.567354028092841	0.8368996875679761	0.18407819719052249	2.572481263429835	0.8132601897738487	0.105725501051022	2.5714895169984264	0.44982691814172826	0.11178141236967337	2.6547392441677737	0.10513607636351259	0.14332832960491554	2.49577851130855	0.023888475235092365	0.1323303370039957	2.51378271066135	0.022795100369697785	0.08017771422560475	2.696783841420923	0.034612853594808875	0.15404768379389666	2.551296516070886	0.8173349188533116	0.2658971883616057	2.468040511195356	0.48414623643490523	0.2734359046223778	2.6064094964181055	0.13056656334350242	0.2873061720767472	2.4499858378974793	0.02655032636325362	0.3051751843393202	2.4837750889412953	0.0310657200604805	0.3501253838956966	2.6648375780131657	0.052002050027619325	0.26484583212918644	2.5181715782053162	1.4535491262972668	0.19709277199919792	2.4418756394149157	1.6984521270532928	0.18767319997267484	2.3705538897696576	1.5784096855641918	0.18832828916337532	2.5539941062398337	1.350187798913769	0.024012448130389327	2.5063864777227853	1.054073020110477	-0.02913940168637431	2.4188418502423676	0.833126055919989	-0.021134881986311055	2.560268106374683	1.3562974391506126	0.3814411429660816	2.5385032677066177	1.0631866813326014	0.38326357890814133	2.460137280317837	0.8396380415442662	0.3814399026070885
348	11.6	2.5605240177568382	0.8377120081593613	0.18287229093111865	2.56609351532245	0.8128526673579675	0.10293579465027218	2.5655459201361426	0.4506307923711004	0.10741764889484987	2.65235716168661	0.10515771705633613	0.1418580182439062	2.5012550896593684	0.021896469026959568	0.13187371328457576	2.5180260398325918	0.02124208705685704	0.08143648057185371	2.6956363935121765	0.033622962523454085	0.15176495978542942	2.53936111852098	0.8181068502873553	0.2634339533164845	2.441469807550515	0.49311191810522376	0.2722689470075656	2.5773308488215054	0.1346522206076384	0.2831903521494392	2.423131877781309	0.028417936104399938	0.30346994612061245	2.4542191593593206	0.03455075877187789	0.3516593916699258	2.6364485919419622	0.056661602893920276	0.2644597280261265	2.507627188742023	1.451904935779082	0.19465361290221173	2.4346706266801665	1.6986088980449807	0.187219668638698	2.358074772824036	1.5767195578743642	0.18291255990305444	2.5419365893656005	1.3487863747152073	0.02054073491515694	2.4908399761442057	1.0529882057460518	-0.030220265935680706	2.3962354912422277	0.8337563803214789	-0.025935567464071586	2.554917678149433	1.3568426317422877	0.3810405269802561	2.5365436528401006	1.0631302613314482	0.38111092327449597	2.4554228879882802	0.8398065971367071	0.3832141304097244
349	11.633333333333333	2.5526458574545057	0.8385536274072001	0.18298017810568534	2.5596065646448287	0.812730073052399	0.10147908566269893	2.5606594798833364	0.4519998592561288	0.1054709910753916	2.6516935263005172	0.10412134304809993	0.14187403522133155	2.504889539489364	0.021097315512720136	0.13258975537637813	2.5219465411896316	0.020046615677756455	0.08265671546343877	2.6940951374357898	0.03204043321850783	0.14911788927688022	2.5261853801308254	0.8191059368488949	0.2618869952873374	2.4186565087659706	0.5003818802519658	0.2728815368808457	2.541576147357136	0.13702859789635735	0.2802532059517001	2.387325913464682	0.030711397117927152	0.3033355686063632	2.414544464602615	0.03853026824467663	0.3541461146744723	2.600085056892146	0.05968827642871937	0.26579586567277536	2.495331307038954	1.4502728086307257	0.1926126653987318	2.4246824243899554	1.6983274995971773	0.1873902667141064	2.344054281432558	1.5747056276894085	0.17926982322916987	2.527937107679308	1.3478400657788978	0.017245668078146894	2.474100145437046	1.052494431476112	-0.03058272788310416	2.371123764707904	0.8348238237711986	-0.029806477899450304	2.5477113969117196	1.3574931803850165	0.38048469253467576	2.534744743239358	1.063513519873563	0.38157528771750526	2.4505009577165593	0.8397626819626853	0.3866331555724739
350	11.666666666666666	2.5438594311077742	0.8393639740846831	0.18440717060797948	2.5530489101934264	0.813024610315233	0.10159023305642816	2.556668870973381	0.45372449678721405	0.10550003884524925	2.6527435341825023	0.10225654549922403	0.14321247267919565	2.5058297847492437	0.021982108658426196	0.1349606196818928	2.5246378765540443	0.0191155975670258	0.08380743980853719	2.6924449201414693	0.02997523270179401	0.1466700582809721	2.5127600497934983	0.8204881896079081	0.2617798457249102	2.399586378352162	0.5053738974718386	0.27478475469095076	2.501077121818872	0.1374816637736536	0.27953000928195865	2.3436480513183673	0.03346880158108589	0.3054106055197338	2.3672948266374982	0.04207475923352613	0.35779496129529303	2.557189243191213	0.060976641762031034	0.2688312576285428	2.481498175326876	1.4483967208812791	0.19120708379398582	2.4106663324013113	1.6986501279377473	0.18770874425405706	2.328722199646177	1.571927837666373	0.1777538493045693	2.512263953932418	1.347196378939112	0.014553755173544207	2.456296870499625	1.05239131162276	-0.03002859245844537	2.3440692161283594	0.8361895248160554	-0.03242656375252869	2.538220432684388	1.3581061069670284	0.38015235460894437	2.5329380234087546	1.0643998595921218	0.385469165734885	2.4450843256304893	0.8393694916303175	0.3917878712571348
351	11.7	2.5340943452390965	0.8399588134026625	0.186806034042369	2.545867972385948	0.8136581090990997	0.10311624254047254	2.553305478108135	0.45601317400573305	0.10726477917592374	2.6547055305896836	0.10005688550071759	0.14535838873857485	2.503795202197175	0.024242048808316447	0.13842773226707747	2.5252716892599922	0.018110122719907515	0.08507191411340571	2.691117106575959	0.02764147570743644	0.1450388167923396	2.4999539095891388	0.8220845704698525	0.26330800212654293	2.3832775492472704	0.507839446776178	0.27750035847072446	2.458029280089873	0.13606396947789198	0.2814820856513127	2.2944591685836824	0.03653575122925173	0.3092652483884692	2.3159914392715706	0.044746332706100254	0.36235073883884955	2.5097982031493213	0.060876538238609015	0.2729799422837554	2.4662963297405036	1.446057032729303	0.1906459286202534	2.3925722793361532	1.7000249013191984	0.18790035683971612	2.3121620616888463	1.5680658098788471	0.1784167600628932	2.495129754506051	1.3465282270864751	0.012849347379739615	2.437082453630113	1.0523365862501268	-0.02866222425356374	2.315567177937366	0.8376684938792094	-0.03366505894365782	2.526226447265909	1.3584115766103526	0.3803732448838329	2.530599744288826	1.0657170891541323	0.39276640675263275	2.4389553025467565	0.8385724084152164	0.3987607353238605
